<?xml version="1.0" encoding="utf-8"?>
<!-- Generator: Adobe Illustrator 16.0.0, SVG Export Plug-In . SVG Version: 6.00 Build 0)  -->
<!DOCTYPE svg PUBLIC "-//W3C//DTD SVG 1.1//EN" "http://www.w3.org/Graphics/SVG/1.1/DTD/svg11.dtd">
<svg version="1.1" id="Layer_1" xmlns="http://www.w3.org/2000/svg" xmlns:xlink="http://www.w3.org/1999/xlink" x="0px" y="0px"
	 width="1918.984px" height="619.416px" viewBox="0 0 1918.984 619.416" enable-background="new 0 0 1918.984 619.416"
	 xml:space="preserve">
<g>
	<path fill="#FFFFFF" d="M546.76,619.416h-8.02l-19.33-47.523v47.523h-7.767v-58.413h11.986l19.33,48.452l19.33-48.452h11.732
		v58.413h-8.104v-47.523L546.76,619.416z"/>
	<path fill="#FFFFFF" d="M603.898,573.496c13.592,0,23.299,9.792,23.299,23.298s-10.045,23.382-23.383,23.382
		c-13.507,0-23.214-9.538-23.214-23.298C580.602,583.203,590.646,573.496,603.898,573.496z M603.898,612.916
		c8.948,0,15.194-6.668,15.194-16.038c0-9.285-6.332-16.122-15.194-16.122c-9.031,0-15.193,6.753-15.193,16.122
		C588.705,606.248,595.035,612.916,603.898,612.916z"/>
	<path fill="#FFFFFF" d="M657.664,590.463c0-5.993-2.533-9.538-8.021-9.538c-5.401,0-8.271,3.883-8.271,9.791v28.7h-8.021v-45.16
		h8.021v4.052c1.266-1.856,4.559-4.559,10.213-4.559c10.299,0,14.098,7.091,14.098,15.87v29.797h-8.02V590.463z"/>
	<path fill="#FFFFFF" d="M682.309,574.256h8.357v6.837h-8.357v25.408c0,3.968,0.845,5.993,5.064,5.993h3.209v6.922
		c-0.676,0-2.617,0.422-5.234,0.422c-8.356,0-11.059-4.136-11.059-11.311v-27.436h-4.557v-6.837h4.557v-6.922h8.02V574.256z"/>
	<path fill="#FFFFFF" d="M714.383,582.359h-2.195c-5.485,0-7.85,3.208-7.85,8.693v28.362h-8.02v-45.16h8.02v4.39
		c1.604-2.531,4.56-4.559,10.045-4.475V582.359z"/>
	<path fill="#FFFFFF" d="M723.666,599.241c0.59,8.525,6.078,13.76,14.604,13.76c7.175,0,11.228-3.63,14.097-8.948l6.162,3.208
		c-2.953,6.922-9.623,12.915-20.259,12.915c-13.59,0-22.875-9.116-22.875-23.213c0-13.675,9.115-23.467,22.031-23.467
		c13.252,0,21.945,8.525,22.115,22.116c0,0.844,0,2.277-0.17,3.629H723.666L723.666,599.241z M723.92,592.742h27.264
		c-0.506-7.43-5.991-12.324-13.844-12.324C729.996,580.418,724.932,585.145,723.92,592.742z M748.145,559.146l-6.752,11.396h-7.766
		l6.584-11.396H748.145z"/>
	<path fill="#FFFFFF" d="M778.613,590.125c4.559,0,7.85,1.604,9.369,3.039v-3.799c0-5.824-2.701-9.116-8.019-9.116
		c-5.488,0-7.43,3.461-7.514,7.175h-7.513c0.084-7.935,4.98-13.675,15.109-13.675c11.396,0,15.869,6.584,15.869,16.545v29.122h-7.09
		v-3.545c-2.111,2.447-5.402,4.22-10.215,4.22c-8.609,0-15.279-5.824-15.279-15.108
		C763.334,596.372,769.582,590.125,778.613,590.125z M779.541,613.507c4.896,0,8.611-3.714,8.611-8.524
		c0-4.896-3.715-8.441-8.695-8.441c-5.064,0-8.355,3.63-8.355,8.441C771.102,609.793,774.563,613.507,779.541,613.507z"/>
	<path fill="#FFFFFF" d="M812.037,619.416h-8.021v-61.705h8.021V619.416z"/>
	<path fill="#FFFFFF" d="M819.211,591.476h17.811v7.599h-17.811V591.476z"/>
	<path fill="#FFFFFF" d="M884.963,559.821c17.728,0,30.051,12.915,30.051,30.304c0,17.305-12.323,30.389-29.967,30.389
		c-17.641,0-29.881-12.662-29.881-30.304C855.166,572.652,867.744,559.821,884.963,559.821z M885.047,612.832
		c12.832,0,21.273-9.454,21.273-22.622c0-13.169-8.611-22.707-21.273-22.707c-12.746,0-21.188,9.538-21.188,22.707
		C863.859,603.462,872.555,612.832,885.047,612.832z"/>
	<path fill="#FFFFFF" d="M931.129,574.256h8.357v6.837h-8.357v25.408c0,3.968,0.844,5.993,5.064,5.993h3.209v6.922
		c-0.677,0-2.617,0.422-5.234,0.422c-8.357,0-11.059-4.136-11.059-11.311v-27.436h-4.558v-6.837h4.558v-6.922h8.02V574.256z"/>
	<path fill="#FFFFFF" d="M954.51,574.256h8.355v6.837h-8.355v25.408c0,3.968,0.844,5.993,5.064,5.993h3.207v6.922
		c-0.676,0-2.617,0.422-5.232,0.422c-8.356,0-11.059-4.136-11.059-11.311v-27.436h-4.56v-6.837h4.56v-6.922h8.02V574.256z"/>
	<path fill="#FFFFFF" d="M981.436,590.125c4.558,0,7.851,1.604,9.369,3.039v-3.799c0-5.824-2.701-9.116-8.02-9.116
		c-5.486,0-7.428,3.461-7.512,7.175h-7.515c0.084-7.935,4.98-13.675,15.109-13.675c11.396,0,15.869,6.584,15.869,16.545v29.122
		h-7.091v-3.545c-2.108,2.447-5.401,4.22-10.213,4.22c-8.61,0-15.278-5.824-15.278-15.108
		C966.156,596.372,972.402,590.125,981.436,590.125z M982.363,613.507c4.896,0,8.608-3.714,8.608-8.524
		c0-4.896-3.713-8.441-8.692-8.441c-5.064,0-8.357,3.63-8.357,8.441C973.922,609.793,977.383,613.507,982.363,613.507z"/>
	<path fill="#FFFFFF" d="M1051.748,609.286l11.057-35.03h8.273l-14.688,45.16h-8.862l-11.313-33.934l-11.395,33.934h-8.863
		l-14.941-45.16h8.863l10.975,35.03l11.144-35.03h8.693L1051.748,609.286z"/>
	<path fill="#FFFFFF" d="M1087.279,590.125c4.557,0,7.85,1.604,9.369,3.039v-3.799c0-5.824-2.701-9.116-8.021-9.116
		c-5.485,0-7.428,3.461-7.512,7.175h-7.515c0.084-7.935,4.98-13.675,15.109-13.675c11.396,0,15.869,6.584,15.869,16.545v29.122
		h-7.09v-3.545c-2.109,2.447-5.402,4.22-10.213,4.22c-8.611,0-15.279-5.824-15.279-15.108
		C1072,596.372,1078.246,590.125,1087.279,590.125z M1088.207,613.507c4.896,0,8.609-3.714,8.609-8.524
		c0-4.896-3.713-8.441-8.693-8.441c-5.064,0-8.357,3.63-8.357,8.441C1079.766,609.793,1083.227,613.507,1088.207,613.507z"/>
	<path fill="#FFFFFF" d="M1111.586,591.476h17.812v7.599h-17.812V591.476z"/>
	<path fill="#FFFFFF" d="M1167.039,568.685v50.731h-8.271v-50.731h-11.985v-7.682h32.246v7.682H1167.039z"/>
	<path fill="#FFFFFF" d="M1200.295,573.496c13.592,0,23.299,9.792,23.299,23.298s-10.045,23.382-23.383,23.382
		c-13.506,0-23.213-9.538-23.213-23.298C1176.998,583.203,1187.043,573.496,1200.295,573.496z M1200.295,612.916
		c8.949,0,15.195-6.668,15.195-16.038c0-9.285-6.332-16.122-15.195-16.122c-9.031,0-15.193,6.753-15.193,16.122
		C1185.102,606.248,1191.432,612.916,1200.295,612.916z"/>
	<path fill="#FFFFFF" d="M1247.814,582.359h-2.193c-5.488,0-7.853,3.208-7.853,8.693v28.362h-8.02v-45.16h8.02v4.39
		c1.604-2.531,4.56-4.559,10.046-4.475V582.359z"/>
	<path fill="#FFFFFF" d="M1272.123,573.496c13.59,0,23.297,9.792,23.297,23.298s-10.045,23.382-23.381,23.382
		c-13.506,0-23.213-9.538-23.213-23.298C1248.826,583.203,1258.871,573.496,1272.123,573.496z M1272.123,612.916
		c8.947,0,15.193-6.668,15.193-16.038c0-9.285-6.33-16.122-15.193-16.122c-9.033,0-15.193,6.753-15.193,16.122
		C1256.93,606.248,1263.26,612.916,1272.123,612.916z"/>
	<path fill="#FFFFFF" d="M1325.889,590.463c0-5.993-2.532-9.538-8.02-9.538c-5.402,0-8.271,3.883-8.271,9.791v28.7h-8.02v-45.16
		h8.02v4.052c1.267-1.856,4.56-4.559,10.213-4.559c10.3,0,14.099,7.091,14.099,15.87v29.797h-8.021V590.463z"/>
	<path fill="#FFFFFF" d="M1350.533,574.256h8.354v6.837h-8.354v25.408c0,3.968,0.844,5.993,5.063,5.993h3.207v6.922
		c-0.676,0-2.616,0.422-5.231,0.422c-8.357,0-11.06-4.136-11.06-11.311v-27.436h-4.559v-6.837h4.559v-6.922h8.021V574.256z"/>
	<path fill="#FFFFFF" d="M1384.043,573.496c13.59,0,23.297,9.792,23.297,23.298s-10.045,23.382-23.381,23.382
		c-13.506,0-23.213-9.538-23.213-23.298C1360.746,583.203,1370.791,573.496,1384.043,573.496z M1384.043,612.916
		c8.947,0,15.193-6.668,15.193-16.038c0-9.285-6.33-16.122-15.193-16.122c-9.033,0-15.193,6.753-15.193,16.122
		C1368.85,606.248,1375.18,612.916,1384.043,612.916z"/>
</g>
<g>
	<path fill="#FFFFFF" d="M603.379,315.729v54.728H460.248c-53.325,0-79.984-26.66-79.984-79.986V185.229
		c0-53.319,26.659-79.985,79.984-79.985h84.195c53.317,0,79.983,26.666,79.983,79.985v0.842c0,52.766-26.666,79.143-79.983,79.143
		h-92.614v-54.726h92.614c16.839,0,25.258-8.137,25.258-24.417v-0.842c0-16.839-8.419-25.259-25.258-25.259h-84.195
		c-16.839,0-25.258,8.419-25.258,25.259v105.242c0,16.84,8.419,25.26,25.258,25.26h143.131V315.729z"/>
	<path fill="#FFFFFF" d="M906.479,370.457h-54.727V185.229c0-16.839-8.42-25.259-25.259-25.259H717.041v210.487h-54.727V105.243
		h164.18c53.318,0,79.984,26.666,79.984,79.985V370.457z"/>
	<path fill="#FFFFFF" d="M965.413,159.97v-54.727h143.131c53.318,0,79.984,26.666,79.984,79.985V290.47
		c0,53.326-26.666,79.986-79.984,79.986h-84.194c-53.326,0-79.985-26.66-79.985-79.986v-0.842c0-52.759,26.659-79.142,79.985-79.142
		h92.614v54.726h-92.614c-16.839,0-25.259,8.145-25.259,24.416v0.842c0,16.84,8.42,25.259,25.259,25.259h84.194
		c16.838,0,25.258-8.419,25.258-25.259V185.229c0-16.839-8.42-25.259-25.258-25.259H965.413z"/>
	<path fill="#FFFFFF" d="M1226.415,105.243h21.049V0h51.779v105.243h45.044v54.727h-45.044v210.487h-51.779V159.97h-21.049V105.243z
		"/>
	<path fill="#FFFFFF" d="M1596.871,315.729v54.728h-143.133c-53.324,0-79.984-26.66-79.984-79.986V185.229
		c0-53.319,26.66-79.985,79.984-79.985h84.194c53.318,0,79.984,26.666,79.984,79.985v0.842c0,52.766-26.666,79.143-79.984,79.143
		h-92.612v-54.726h92.612c16.841,0,25.259-8.137,25.259-24.417v-0.842c0-16.839-8.418-25.259-25.259-25.259h-84.194
		c-16.838,0-25.258,8.419-25.258,25.259v105.242c0,16.84,8.42,25.26,25.258,25.26h143.133V315.729z"/>
	<path fill="#FFFFFF" d="M1857.873,315.729v54.728h-122.082c-53.326,0-79.984-26.66-79.984-79.986V185.229
		c0-53.319,26.658-79.985,79.984-79.985h122.082v54.727h-122.082c-16.84,0-25.258,8.419-25.258,25.259v105.242
		c0,16.84,8.418,25.259,25.258,25.259h122.082V315.729z"/>
</g>
<path fill="#FFFFFF" d="M260.494,204.038h28.457v89.247c0,16.279-10.508,24.416-31.522,24.416H99.819
	c-21.015,0-31.522-8.42-31.522-25.26V81.956c0-16.839,10.508-25.258,31.522-25.258h205.759c8.34-6.867,16.811-13.593,25.402-20.193
	V1.971H99.819C33.27,1.971,0,28.637,0,81.956v210.486c0,53.327,33.27,79.986,99.819,79.986h157.609
	c66.541,0,99.82-26.377,99.82-79.143V149.312h-55.24C287.032,166.69,273.128,184.939,260.494,204.038z"/>
<path fill="#FFFFFF" d="M83.175,142.077c5.295,2.85,10.232,6.184,14.859,10.024c-1.576-1.332-3.152-2.665-4.729-3.997
	c10.102,8.641,17.975,19.271,24.15,30.999c-0.892-1.714-1.782-3.427-2.674-5.141c14.778,28.773,19.519,61.771,20.996,93.737
	c-0.085-1.93-0.17-3.86-0.256-5.79c0.255,5.956,0.389,11.913,0.417,17.874c-0.636,4.074,0.341,7.719,2.93,10.93
	c4.486,5.469,12.124,7.58,18.848,8.119c9.049,0.727,18.403-1.166,26.637-4.916c6.522-2.971,14.5-8.057,17.697-14.869
	c11.257-23.983,24.453-46.967,39.391-68.845c3.646-5.339,7.419-10.591,11.263-15.789c-5.284,7.145,1.355-1.745,2.628-3.39
	c1.962-2.538,3.957-5.048,5.964-7.55c7.986-9.958,16.362-19.601,24.994-29.002c17.152-18.683,35.533-36.214,54.63-52.894
	c2.382-2.081,4.782-4.14,7.188-6.193c1.581-1.35,6.21-5.229-1.16,0.967c1.21-1.017,2.426-2.028,3.641-3.039
	c4.86-4.041,9.773-8.018,14.714-11.96c9.872-7.876,19.911-15.541,30.049-23.072c5.507-4.091,11.081-9.29,12.264-16.455
	c1.04-6.308-2.39-11.757-7.657-14.928c-13.937-8.385-35.802-4.242-48.287,5.034c-87.28,64.845-166.859,142.366-213.633,242.025
	c22.037-0.244,44.074-0.49,66.111-0.734c-0.285-59.813-9.229-135.884-68.079-167.562c-14.861-8-34.848-4.232-48.287,5.034
	c-5.553,3.829-11.112,9.475-12.264,16.455C74.516,133.225,77.817,139.192,83.175,142.077L83.175,142.077z"/>
<g>
	<path fill="#FFFFFF" d="M1918.984,344.946c0,14.341-11.256,25.597-25.904,25.597c-14.494,0-26.057-11.256-26.057-25.597
		c0-14.03,11.563-25.286,26.057-25.286C1907.729,319.66,1918.984,330.916,1918.984,344.946z M1873.498,344.946
		c0,11.257,8.326,20.199,19.736,20.199c11.102,0,19.272-8.942,19.272-20.045c0-11.256-8.172-20.354-19.428-20.354
		S1873.498,333.847,1873.498,344.946z M1889.072,358.207h-5.859V332.92c2.313-0.463,5.551-0.771,9.713-0.771
		c4.781,0,6.939,0.771,8.789,1.852c1.389,1.078,2.467,3.084,2.467,5.551c0,2.775-2.157,4.934-5.241,5.859v0.307
		c2.467,0.926,3.854,2.775,4.627,6.168c0.77,3.855,1.231,5.396,1.85,6.322h-6.322c-0.771-0.926-1.231-3.238-2.004-6.168
		c-0.463-2.775-2.004-4.008-5.242-4.008h-2.774v10.175H1889.072z M1889.227,343.867h2.775c3.238,0,5.859-1.078,5.859-3.701
		c0-2.313-1.697-3.854-5.398-3.854c-1.541,0-2.621,0.154-3.235,0.31L1889.227,343.867L1889.227,343.867z"/>
</g>
<g>
	<g>
		<path fill="#FFFFFF" d="M26.475,446.43c5.092,2.359,10.432,4.1,15.896,6.955c9.19,4.472,14.654,11.55,14.654,22.852
			c0,14.902-10.556,25.211-26.452,25.211c-19.995,0-26.701-12.916-26.452-27.198h11.797c0,9.19,3.975,16.642,14.655,16.642
			c8.072,0,14.034-4.719,14.034-13.535c0-6.831-3.602-10.682-9.191-13.413c-5.588-2.98-11.425-4.596-17.138-7.699
			c-7.7-4.224-12.171-11.178-12.171-21.361c0-12.543,9.314-22.479,24.217-22.479c18.133,0,24.467,11.674,24.094,24.217H43.241
			c-0.248-7.948-4.471-13.785-12.916-13.785c-7.947,0-12.17,4.968-12.17,11.674C18.155,440.345,21.135,443.821,26.475,446.43z"/>
		<path fill="#FFFFFF" d="M98.382,432.396c19.995,0,34.276,14.405,34.276,34.276c0,19.87-14.778,34.401-34.4,34.401
			c-19.871,0-34.152-14.034-34.152-34.277C64.106,446.678,78.884,432.396,98.382,432.396z M98.382,490.394
			c13.165,0,22.354-9.812,22.354-23.597c0-13.661-9.314-23.721-22.354-23.721c-13.288,0-22.354,9.936-22.354,23.721
			S85.342,490.394,98.382,490.394z"/>
		<path fill="#FFFFFF" d="M153.526,499.956h-11.799v-90.784h11.799V499.956z"/>
		<path fill="#FFFFFF" d="M177.122,475.987c0,8.816,3.727,14.032,11.55,14.032c7.824,0,12.047-5.713,12.047-14.405v-42.102h11.923
			v66.442h-11.799v-6.085c-1.986,3.104-6.706,6.83-14.902,6.83c-14.779,0-20.616-10.185-20.616-23.349v-43.84h11.798
			L177.122,475.987L177.122,475.987z"/>
		<path fill="#FFFFFF" d="M238.473,433.514h12.295v10.061h-12.295v37.382c0,5.837,1.242,8.817,7.451,8.817h4.72v10.184
			c-0.993,0-3.851,0.621-7.7,0.621c-12.295,0-16.27-6.086-16.27-16.643v-40.361h-6.705v-10.061h6.705V423.33h11.799V433.514z"/>
		<path fill="#FFFFFF" d="M257.102,419.231c0-4.472,3.478-7.824,7.824-7.824c4.346,0,7.948,3.354,7.948,7.824
			c0,4.347-3.602,7.823-7.948,7.823C260.58,427.055,257.102,423.578,257.102,419.231z M270.887,499.956h-11.798v-66.442h11.798
			V499.956z"/>
		<path fill="#FFFFFF" d="M314.231,432.396c19.993,0,34.275,14.405,34.275,34.276c0,19.87-14.778,34.401-34.4,34.401
			c-19.871,0-34.152-14.034-34.152-34.277C279.954,446.678,294.733,432.396,314.231,432.396z M314.231,490.394
			c13.163,0,22.354-9.812,22.354-23.597c0-13.661-9.313-23.721-22.354-23.721c-13.29,0-22.355,9.936-22.355,23.721
			S301.19,490.394,314.231,490.394z"/>
		<path fill="#FFFFFF" d="M393.342,457.358c0-8.817-3.726-14.033-11.799-14.033c-7.947,0-12.17,5.713-12.17,14.406v42.225h-11.799
			v-66.442h11.799v5.961c1.863-2.73,6.706-6.705,15.027-6.705c15.149,0,20.739,10.432,20.739,23.348v43.84h-11.799L393.342,457.358
			L393.342,457.358z"/>
		<path fill="#FFFFFF" d="M433.084,458.601c3.477,1.241,6.954,1.987,10.556,3.229c9.19,3.229,14.406,8.445,14.406,19.126
			c0,13.04-10.184,19.746-22.479,19.746c-16.767,0-22.479-10.185-22.229-21.609h11.425c0.124,6.458,2.608,12.047,11.055,12.047
			c5.836,0.124,10.68-3.104,10.68-9.065c0-5.464-2.732-7.948-7.699-9.688c-3.851-1.365-7.452-1.986-11.799-3.85
			c-8.693-3.728-12.047-9.688-12.047-17.636c0-11.054,8.692-18.133,20.865-18.133c13.907,0,20.489,8.072,20.614,20.119h-10.929
			c-0.372-6.706-3.478-10.929-9.936-10.929c-5.59,0-9.19,3.104-9.19,8.196C426.377,454.378,428.614,456.986,433.084,458.601z"/>
		<path fill="#FFFFFF" d="M539.516,490.145c-3.478,5.093-11.674,10.931-22.976,10.931c-19.995,0-33.904-13.91-33.904-34.277
			c0-19.498,14.034-34.401,33.655-34.401c10.557,0,18.381,4.473,22.604,9.563v-32.787h11.8v90.784h-11.179V490.145L539.516,490.145z
			 M516.913,490.518c13.289,0,22.479-9.936,22.479-23.721s-9.313-23.845-22.479-23.845c-13.164,0-22.354,10.06-22.354,23.845
			S503.874,490.518,516.913,490.518z"/>
		<path fill="#FFFFFF" d="M565.722,428.795c-3.602-0.994-6.085-3.727-6.085-7.452c0-4.719,3.354-8.195,8.196-8.195
			c4.72,0,8.196,3.478,8.196,8.195c0,2.732-0.869,4.968-2.359,8.197l-5.217,12.17h-8.32L565.722,428.795z"/>
		<path fill="#FFFFFF" d="M597.887,456.861c6.707,0,11.551,2.359,13.785,4.472v-5.589c0-8.569-3.975-13.413-11.798-13.413
			c-8.073,0-10.929,5.092-11.054,10.557h-11.054c0.125-11.674,7.328-20.118,22.23-20.118c16.766,0,23.348,9.687,23.348,24.342
			v42.846h-10.432v-5.216c-3.105,3.602-7.948,6.209-15.027,6.209c-12.668,0-22.479-8.568-22.479-22.229
			C575.409,466.052,584.598,456.861,597.887,456.861z M599.253,491.263c7.203,0,12.667-5.465,12.667-12.543
			c0-7.203-5.464-12.42-12.791-12.42c-7.451,0-12.295,5.341-12.295,12.42C586.834,485.798,591.926,491.263,599.253,491.263z"/>
		<path fill="#FFFFFF" d="M666.567,429.291c0-12.171,4.844-20.119,19.002-20.119h4.471v10.061h-3.229
			c-7.202,0-8.444,4.471-8.444,10.06v4.223h11.426v10.061h-11.426v56.383h-11.799v-56.383h-17.512v56.383h-11.798v-56.383h-6.707
			v-10.061h6.707v-4.223c0-12.171,4.844-20.119,19.125-20.119h4.348v10.061h-3.23c-7.078,0-8.444,4.471-8.444,10.06v4.223h17.512
			V429.291z"/>
		<path fill="#FFFFFF" d="M714.756,456.861c6.707,0,11.551,2.359,13.785,4.472v-5.589c0-8.569-3.974-13.413-11.797-13.413
			c-8.073,0-10.93,5.092-11.055,10.557h-11.054c0.125-11.674,7.328-20.118,22.23-20.118c16.766,0,23.349,9.687,23.349,24.342v42.846
			h-10.433v-5.216c-3.104,3.602-7.947,6.209-15.027,6.209c-12.667,0-22.479-8.568-22.479-22.229
			C692.278,466.052,701.468,456.861,714.756,456.861z M716.124,491.263c7.203,0,12.667-5.465,12.667-12.543
			c0-7.203-5.464-12.42-12.792-12.42c-7.451,0-12.295,5.341-12.295,12.42C703.704,485.798,708.795,491.263,716.124,491.263z"/>
		<path fill="#FFFFFF" d="M750.153,419.231c0-4.472,3.479-7.824,7.823-7.824c4.349,0,7.949,3.354,7.949,7.824
			c0,4.347-3.602,7.823-7.949,7.823C753.631,427.056,750.153,423.578,750.153,419.231z M763.938,499.956h-11.797v-66.442h11.797
			V499.956z"/>
		<path fill="#FFFFFF" d="M802.686,445.438h-3.229c-8.072,0-11.549,4.719-11.549,12.791v41.729H776.11v-66.442h11.799v6.458
			c2.358-3.726,6.705-6.706,14.776-6.582V445.438z"/>
		<path fill="#FFFFFF" d="M816.348,470.274c0.869,12.543,8.941,20.242,21.484,20.242c10.557,0,16.518-5.34,20.74-13.164l9.065,4.72
			c-4.348,10.184-14.157,19.002-29.807,19.002c-19.994,0-33.656-13.413-33.656-34.153c0-20.119,13.413-34.524,32.414-34.524
			c19.498,0,32.29,12.544,32.539,32.538c0,1.241,0,3.354-0.249,5.341L816.348,470.274L816.348,470.274z M816.72,460.712h40.114
			c-0.746-10.929-8.818-18.132-20.367-18.132C825.663,442.58,818.21,449.534,816.72,460.712z"/>
		<path fill="#FFFFFF" d="M893.596,458.601c3.479,1.241,6.955,1.987,10.558,3.229c9.189,3.229,14.405,8.445,14.405,19.126
			c0,13.04-10.184,19.746-22.479,19.746c-16.766,0-22.479-10.185-22.23-21.609h11.427c0.125,6.458,2.606,12.047,11.053,12.047
			c5.838,0.124,10.681-3.104,10.681-9.065c0-5.464-2.73-7.948-7.7-9.688c-3.85-1.365-7.45-1.986-11.798-3.85
			c-8.692-3.728-12.046-9.688-12.046-17.636c0-11.054,8.693-18.133,20.863-18.133c13.91,0,20.492,8.072,20.616,20.119h-10.93
			c-0.373-6.706-3.478-10.929-9.936-10.929c-5.588,0-9.189,3.104-9.189,8.196C886.891,454.378,889.125,456.986,893.596,458.601z"/>
	</g>
	<g>
		<path fill="#FFFFFF" d="M1047.258,499.956h-23.598v-85.94h22.107c16.02,0,24.961,7.824,24.961,22.604
			c0,8.197-3.726,14.779-9.812,18.008c7.576,3.229,12.172,9.936,12.172,20.492C1073.09,490.766,1062.408,499.956,1047.258,499.956z
			 M1035.707,424.696v25.832h9.439c8.444,0,13.038-4.845,13.038-13.04c0-8.197-4.346-12.792-13.038-12.792H1035.707z
			 M1035.707,460.836v28.439h10.184c9.563,0,14.531-5.838,14.531-14.53c0-8.445-4.844-13.909-14.531-13.909H1035.707z"/>
		<path fill="#FFFFFF" d="M1094.451,475.987c0,8.816,3.725,14.032,11.549,14.032s12.047-5.713,12.047-14.405v-42.102h11.922v66.442
			h-11.797v-6.085c-1.988,3.104-6.707,6.83-14.904,6.83c-14.776,0-20.614-10.185-20.614-23.349v-43.84h11.799L1094.451,475.987
			L1094.451,475.987z"/>
		<path fill="#FFFFFF" d="M1158.039,458.601c3.477,1.241,6.953,1.987,10.555,3.229c9.191,3.229,14.406,8.445,14.406,19.126
			c0,13.04-10.184,19.746-22.479,19.746c-16.767,0-22.479-10.185-22.23-21.609h11.426c0.125,6.458,2.609,12.047,11.053,12.047
			c5.839,0.124,10.683-3.104,10.683-9.065c0-5.464-2.732-7.948-7.699-9.688c-3.852-1.365-7.453-1.986-11.799-3.85
			c-8.693-3.728-12.047-9.688-12.047-17.636c0-11.054,8.692-18.133,20.863-18.133c13.909,0,20.491,8.072,20.616,20.119h-10.93
			c-0.373-6.706-3.477-10.929-9.936-10.929c-5.589,0-9.189,3.104-9.189,8.196C1151.332,454.378,1153.566,456.986,1158.039,458.601z"
			/>
		<path fill="#FFFFFF" d="M1189.582,419.231c0-4.472,3.477-7.824,7.824-7.824c4.347,0,7.949,3.354,7.949,7.824
			c0,4.347-3.603,7.823-7.949,7.823C1193.059,427.055,1189.582,423.578,1189.582,419.231z M1203.367,499.956h-11.799v-66.442h11.799
			V499.956z"/>
		<path fill="#FFFFFF" d="M1251.307,457.358c0-8.817-3.727-14.033-11.799-14.033c-7.947,0-12.17,5.713-12.17,14.406v42.225h-11.799
			v-66.442h11.799v5.961c1.861-2.73,6.705-6.705,15.027-6.705c15.149,0,20.738,10.432,20.738,23.348v43.84h-11.798L1251.307,457.358
			L1251.307,457.358z"/>
		<path fill="#FFFFFF" d="M1284.094,470.274c0.869,12.543,8.941,20.242,21.484,20.242c10.557,0,16.518-5.34,20.74-13.164l9.065,4.72
			c-4.348,10.184-14.157,19.002-29.807,19.002c-19.994,0-33.656-13.413-33.656-34.153c0-20.119,13.414-34.524,32.414-34.524
			c19.498,0,32.291,12.544,32.539,32.538c0,1.241,0,3.354-0.248,5.341L1284.094,470.274L1284.094,470.274z M1284.465,460.712h40.115
			c-0.746-10.929-8.818-18.132-20.367-18.132C1293.408,442.58,1285.957,449.534,1284.465,460.712z"/>
		<path fill="#FFFFFF" d="M1361.342,458.601c3.478,1.241,6.955,1.987,10.558,3.229c9.188,3.229,14.405,8.445,14.405,19.126
			c0,13.04-10.184,19.746-22.479,19.746c-16.766,0-22.479-10.185-22.23-21.609h11.427c0.123,6.458,2.606,12.047,11.053,12.047
			c5.836,0.124,10.68-3.104,10.68-9.065c0-5.464-2.731-7.948-7.698-9.688c-3.851-1.365-7.451-1.986-11.8-3.85
			c-8.692-3.728-12.045-9.688-12.045-17.636c0-11.054,8.693-18.133,20.863-18.133c13.91,0,20.492,8.072,20.615,20.119h-10.929
			c-0.373-6.706-3.479-10.929-9.936-10.929c-5.59,0-9.191,3.104-9.191,8.196C1354.635,454.378,1356.871,456.986,1361.342,458.601z"
			/>
		<path fill="#FFFFFF" d="M1410.895,458.601c3.478,1.241,6.955,1.987,10.558,3.229c9.188,3.229,14.406,8.445,14.406,19.126
			c0,13.04-10.185,19.746-22.479,19.746c-16.766,0-22.479-10.185-22.229-21.609h11.426c0.123,6.458,2.606,12.047,11.053,12.047
			c5.836,0.124,10.681-3.104,10.681-9.065c0-5.464-2.732-7.948-7.699-9.688c-3.851-1.365-7.451-1.986-11.799-3.85
			c-8.693-3.728-12.045-9.688-12.045-17.636c0-11.054,8.692-18.133,20.862-18.133c13.91,0,20.492,8.072,20.615,20.119h-10.928
			c-0.373-6.706-3.479-10.929-9.937-10.929c-5.59,0-9.19,3.104-9.19,8.196C1404.188,454.378,1406.424,456.986,1410.895,458.601z"/>
		<path fill="#FFFFFF" d="M1483.299,446.43c5.092,2.359,10.432,4.1,15.896,6.955c9.188,4.472,14.653,11.55,14.653,22.852
			c0,14.902-10.557,25.211-26.452,25.211c-19.994,0-26.701-12.916-26.453-27.198h11.799c0,9.19,3.975,16.642,14.654,16.642
			c8.071,0,14.032-4.719,14.032-13.535c0-6.831-3.602-10.682-9.188-13.413c-5.59-2.98-11.426-4.596-17.14-7.699
			c-7.698-4.224-12.17-11.178-12.17-21.361c0-12.543,9.313-22.479,24.218-22.479c18.131,0,24.465,11.674,24.092,24.217h-11.176
			c-0.248-7.948-4.472-13.785-12.916-13.785c-7.949,0-12.173,4.968-12.173,11.674
			C1474.977,440.345,1477.957,443.821,1483.299,446.43z"/>
		<path fill="#FFFFFF" d="M1555.205,432.396c19.994,0,34.277,14.405,34.277,34.276c0,19.87-14.779,34.401-34.402,34.401
			c-19.869,0-34.152-14.034-34.152-34.277C1520.928,446.678,1535.707,432.396,1555.205,432.396z M1555.205,490.394
			c13.164,0,22.354-9.812,22.354-23.597c0-13.661-9.313-23.721-22.354-23.721c-13.289,0-22.354,9.936-22.354,23.721
			S1542.166,490.394,1555.205,490.394z"/>
		<path fill="#FFFFFF" d="M1610.348,499.956h-11.799v-90.784h11.799V499.956z"/>
		<path fill="#FFFFFF" d="M1633.943,475.987c0,8.816,3.727,14.032,11.551,14.032s12.047-5.713,12.047-14.405v-42.102h11.922v66.442
			h-11.799v-6.085c-1.986,3.104-6.705,6.83-14.902,6.83c-14.778,0-20.614-10.185-20.614-23.349v-43.84h11.797L1633.943,475.987
			L1633.943,475.987z"/>
		<path fill="#FFFFFF" d="M1695.297,433.514h12.295v10.061h-12.295v37.382c0,5.837,1.24,8.817,7.451,8.817h4.719v10.184
			c-0.994,0-3.85,0.621-7.699,0.621c-12.295,0-16.27-6.086-16.27-16.643v-40.361h-6.707v-10.061h6.707V423.33h11.799V433.514z"/>
		<path fill="#FFFFFF" d="M1713.926,419.231c0-4.472,3.478-7.824,7.824-7.824c4.346,0,7.947,3.354,7.947,7.824
			c0,4.347-3.603,7.823-7.947,7.823C1717.402,427.056,1713.926,423.578,1713.926,419.231z M1727.711,499.956h-11.799v-66.442h11.799
			V499.956z"/>
		<path fill="#FFFFFF" d="M1771.055,432.396c19.994,0,34.275,14.405,34.275,34.276c0,19.87-14.777,34.401-34.4,34.401
			c-19.871,0-34.151-14.034-34.151-34.277C1736.777,446.678,1751.557,432.396,1771.055,432.396z M1771.055,490.394
			c13.164,0,22.354-9.812,22.354-23.597c0-13.661-9.314-23.721-22.354-23.721c-13.289,0-22.354,9.936-22.354,23.721
			S1758.014,490.394,1771.055,490.394z"/>
		<path fill="#FFFFFF" d="M1850.166,457.358c0-8.817-3.727-14.033-11.799-14.033c-7.947,0-12.17,5.713-12.17,14.406v42.225h-11.799
			v-66.442h11.799v5.961c1.86-2.73,6.705-6.705,15.026-6.705c15.15,0,20.738,10.432,20.738,23.348v43.84h-11.797L1850.166,457.358
			L1850.166,457.358z"/>
		<path fill="#FFFFFF" d="M1889.908,458.601c3.477,1.241,6.953,1.987,10.555,3.229c9.191,3.229,14.406,8.445,14.406,19.126
			c0,13.04-10.184,19.746-22.479,19.746c-16.766,0-22.479-10.185-22.229-21.609h11.426c0.125,6.458,2.609,12.047,11.053,12.047
			c5.838,0.124,10.683-3.104,10.683-9.065c0-5.464-2.732-7.948-7.699-9.688c-3.853-1.365-7.453-1.986-11.799-3.85
			c-8.693-3.728-12.047-9.688-12.047-17.636c0-11.054,8.692-18.133,20.862-18.133c13.91,0,20.492,8.072,20.617,20.119h-10.93
			c-0.373-6.706-3.478-10.929-9.937-10.929c-5.588,0-9.188,3.104-9.188,8.196C1883.201,454.378,1885.436,456.986,1889.908,458.601z"
			/>
	</g>
	<path fill="#FFFFFF" d="M972.249,403.668v118.805h-7.961V403.668H972.249z"/>
</g>
</svg>
