<?xml version="1.0" encoding="utf-8"?>
<!-- Generator: Adobe Illustrator 18.0.0, SVG Export Plug-In . SVG Version: 6.00 Build 0)  -->
<!DOCTYPE svg PUBLIC "-//W3C//DTD SVG 1.1//EN" "http://www.w3.org/Graphics/SVG/1.1/DTD/svg11.dtd">
<svg version="1.1" id="Layer_1" xmlns="http://www.w3.org/2000/svg" xmlns:xlink="http://www.w3.org/1999/xlink" x="0px" y="0px"
	 viewBox="0 0 6314.2 679.1" enable-background="new 0 0 6314.2 679.1" xml:space="preserve">
<path fill="#FFFFFF" d="M3708.3,621.9c-41.2,35.7-92,53.5-152.2,53.5c-36.9,0-72.3-8.3-106.1-24.9c-20.3-9.8-38.8-23.1-55.4-39.7
	v55.4h-72V421.7h72v36.9c0,36.9,15.7,69.8,47.1,98.7c32.6,28.9,71,43.4,115.3,43.4c38.1,0,70.1-11.4,95.9-34.1
	c25.2-21.5,37.8-49.8,37.8-84.9c0-30.7-11.4-54.4-34.1-71c-12.3-9.2-29.2-18.1-50.8-26.8c-21.5-8.6-48.9-16.9-82.1-24.9
	c-33.2-8.6-62.4-18.4-87.6-29.5c-25.2-11.1-45.8-24-61.8-38.7c-33.2-29.5-49.8-70.4-49.8-122.7c0-46.7,19.4-86.7,58.1-120
	c38.1-32,84.6-48,139.3-48c16,0,32.3,1.1,48.9,3.2c16.6,2.2,32.9,6.6,48.9,13.4c14.8,6.8,28,13.5,39.7,20.3
	c11.7,6.8,23.7,16.6,36,29.5c6.8,8,12.5,15.1,17.1,21.2c4.6,6.2,9.1,14.2,13.4,24c3.7,7.4,6.5,16.6,8.3,27.7
	c1.8,11.1,3.4,21.7,4.6,31.8c1.2,10.2,2.1,22.6,2.8,37.4h-78.4v-26.8c0-4.3-0.6-10-1.8-17.1c-1.2-7.1-3.2-14.6-6-22.6
	c-2.8-8-6.5-15.7-11.1-23.1c-4.6-7.4-10.3-13.8-17.1-19.4c-14.2-10.5-30-17.2-47.5-20.3c-17.5-3.1-37.7-4.6-60.4-4.6
	c-34.5,0-62.8,9.2-84.9,27.7c-21.5,17.9-32.3,40.3-32.3,67.3c0,30.2,11.4,53.2,34.1,69.2c12.9,8.6,28.1,16.5,45.7,23.5
	c17.5,7.1,37.7,13.1,60.5,18c42.4,10.5,78.7,22.1,108.9,35.1c30.1,12.9,53.5,27.1,70.1,42.4c33.8,32,50.8,75.1,50.8,129.2
	C3772,541.3,3750.8,586.2,3708.3,621.9z"/>
<path fill="#FFFFFF" d="M4569.7,596.5c-13.8,18.2-29.7,33.4-47.5,45.7c-35.7,24.6-76.6,36.9-122.7,36.9c-68.3,0-124-23.1-167-69.2
	c-42.5-46.1-63.7-104.9-63.7-176.2c0-68.3,21.2-126.4,63.7-174.4c43.7-47.4,97.5-71,161.5-71c33.8,0,63.4,6.8,88.6,20.3
	c12.9,6.8,24.9,15.1,36,24.9v-5.5h69.2v167.9h-68.3c-1.2-28.9-5.2-51.4-12-67.4c-6.8-16-16-28.6-27.7-37.8
	c-26.5-19.7-55-29.5-85.8-29.5c-43.7,0-78.7,15.7-105.2,47.1c-27.7,31.4-41.5,73.2-41.5,125.5c0,52.3,14.2,94.1,42.5,125.5
	c27.7,31.4,64.6,47.1,110.7,47.1c33.2,0,61.2-8.6,84-25.9c11.1-8.6,21.2-19.2,30.4-31.8c9.2-12.6,18.1-29.7,26.8-51.2L4608,525
	C4596.3,554.6,4583.5,578.4,4569.7,596.5z"/>
<path fill="#FFFFFF" d="M4970.6,666.2v-46.2c-15.4,11.1-33.9,21.5-55.4,31.4c-32,14.1-64.9,21.2-98.7,21.2
	c-18.5,0-35.4-2.6-50.8-7.8c-15.4-5.2-29.2-13.7-41.5-25.4c-22.8-22.7-34.1-52.9-34.1-90.4V271.3h-76.6v-71h154.1v340.5
	c0,39.4,19.1,59,57.2,59c24.6,0,50.8-7.1,78.4-21.2c26.4-14.1,48.9-30.4,67.4-48.9V256.5v-56.3h77.5v394.9h75.6v71.1H4970.6z"/>
<path fill="#FFFFFF" d="M5409.8,269.4c-30.8,0-56.8,3.7-78,11.1c-21.2,7.4-38.3,16.9-51.2,28.6c-12.9,11.7-22.9,25.2-30,40.6
	c-7.1,15.4-10.6,36.9-10.6,64.6v180.8h89.5v71.1h-167v-56.3V271.3h-83v-71H5240v46.1c4.9-6.1,10.4-10.5,16.6-12.9
	c6.1-2.5,12.6-5.5,19.4-9.2c9.2-4.3,19.4-8,30.4-11.1c11.1-3.1,22.6-5.5,34.6-7.4c12-1.8,24-3.1,36-3.7c12-0.6,23.2-0.9,33.7-0.9
	l31.4,0.9v67.4H5409.8z"/>
<path fill="#FFFFFF" d="M6253.1,266.8c-21.2-22.4-47.2-38.8-77.9-49.2c-30.8-10.4-66.3-15.6-106.6-15.6h-263.5h-60.7h-263.3v415.1
	v48h263.3h61.4H6068c43.6,0,81.5-5.6,113.7-16.8c32.2-11.2,58.3-29.3,78.2-54.2c36.1-46.1,54.2-99.5,54.2-160.2
	C6314.2,365.7,6293.8,310,6253.1,266.8z M5925.9,597.1h-181.5v0h-188.5V462.5h131.3c12.4,18.4,33.4,30.5,57.2,30.5
	c38,0,68.9-30.8,68.9-68.8c0-38-30.9-68.8-68.9-68.8c-27.4,0-51.1,16-62.2,39.2h-126.4V269.9h188.5h60.7h120.8
	C5925.9,269.9,5925.9,597.1,5925.9,597.1z M6228.8,506.7c-7.1,19.9-17.2,36.6-30.5,49.9c-13.3,13.3-30.2,23.4-50.8,30.2
	c-20.6,6.9-45.4,10.3-74.5,10.3h-72.3V269.9h71c28.3,0,52.6,3.6,72.9,10.9c20.4,7.3,37.6,17.8,51.7,31.5
	c14.1,13.7,24.8,30.5,32.1,50.5c7.3,19.9,10.9,43.6,10.9,71C6239.4,462.5,6235.8,486.8,6228.8,506.7z"/>
<path fill="#FFFFFF" d="M3880.7,597.1V462.5h131.3c12.4,18.4,33.4,30.5,57.2,30.5c38,0,68.9-30.8,68.9-68.8
	c0-38-30.9-68.8-68.9-68.8c-27.4,0-51.1,16-62.2,39.2h-126.4V269.9H4130V202h-324.1v415.1v48h324.7v-67.9H4082H3880.7z"/>
<path fill="#FFFFFF" d="M398.6,358c-16.6-15.4-40-29.5-70.1-42.4c-30.1-12.9-66.4-24.6-108.9-35.1c-22.8-4.9-42.9-10.9-60.4-18
	c-17.5-7.1-32.8-14.9-45.7-23.5c-22.8-16-34.1-39.1-34.1-69.2c0-27.1,10.7-49.5,32.3-67.3c22.1-18.5,50.4-27.7,84.9-27.7
	c22.7,0,42.9,1.5,60.4,4.6c17.5,3.1,33.4,9.8,47.5,20.3c6.8,5.5,12.5,12,17.1,19.4c4.6,7.4,8.3,15.1,11.1,23.1
	c2.8,8,4.8,15.5,6,22.6c1.2,7.1,1.9,12.8,1.9,17.1v26.8h78.4c-0.6-14.8-1.5-27.2-2.8-37.4c-1.2-10.1-2.8-20.8-4.6-31.8
	c-1.8-11.1-4.6-20.3-8.3-27.7c-4.3-9.8-8.8-17.8-13.4-24c-4.6-6.1-10.3-13.2-17.1-21.2c-12.3-12.9-24.3-22.8-36-29.5
	c-11.7-6.8-24.9-13.5-39.7-20.3c-16-6.8-32.3-11.2-48.9-13.4C231.6,1.1,215.3,0,199.3,0C144.5,0,98.1,16,60,48
	c-38.8,33.2-58.1,73.2-58.1,120c0,52.3,16.6,93.2,49.8,122.7c16,14.8,36.6,27.7,61.8,38.7c25.2,11.1,54.4,20.9,87.7,29.5
	c33.2,8,60.6,16.3,82.1,24.9c21.5,8.6,38.4,17.5,50.7,26.8c22.8,16.6,34.2,40.3,34.2,71c0,35.1-12.6,63.4-37.8,84.9
	c-25.8,22.8-57.8,34.1-96,34.1c-44.3,0-82.7-14.5-115.3-43.4C87.7,528.4,72,495.5,72,458.6v-36.9H0v244.5h72v-55.4
	c16.6,16.6,35.1,29.8,55.4,39.7c33.8,16.6,69.2,24.9,106.1,24.9c60.3,0,111-17.8,152.2-53.5c42.4-35.7,63.7-80.6,63.7-134.7
	C449.4,433.1,432.4,390,398.6,358z"/>
<path fill="#FFFFFF" d="M707.7,188.2c-66.4,0-121.8,23.7-166.1,71c-44.3,47.4-66.4,105.5-66.4,174.4c0,69.5,22.1,127.6,66.4,174.4
	c44.3,47.4,99.6,71,166.1,71c66.4,0,121.8-23.7,166.1-71c44.3-46.7,66.4-104.9,66.4-174.4c0-68.9-22.1-127-66.4-174.4
	C829.5,211.9,774.1,188.2,707.7,188.2z M818.4,558.2c-29.5,32-66.4,48-110.7,48c-44.3,0-81.2-16-110.7-48
	c-28.9-32.6-43.4-74.1-43.4-124.6c0-50.4,14.4-92,43.4-124.6c29.5-32,66.4-48,110.7-48c44.3,0,81.2,16,110.7,48
	c28.9,32.6,43.4,74.1,43.4,124.6C861.8,484.1,847.3,525.6,818.4,558.2z"/>
<path fill="#FFFFFF" d="M1082.8,87.2c5.8-10.8,17.7-16.2,35.5-16.2c11.7,0,21.2,3.1,28.6,9.2c3.1,3.1,6.3,7.8,9.7,14.3
	c3.4,6.5,6.9,16.8,10.6,30.9l70.1-11.1c-3.1-20.3-7.7-36.8-13.8-49.4c-6.2-12.6-14.2-23.8-24-33.7C1178.6,10.5,1151.8,0,1119.2,0
	c-35.7,0-65.2,12.6-88.6,37.8c-22.8,25.2-34.1,58.1-34.1,98.7v63.7h-67.4v71h67.4v353.4h0.9v41.5h162.4v-71.1H1074V271.3h85.8v-71
	H1074v-72.9C1074,111.3,1076.9,98,1082.8,87.2z"/>
<path fill="#FFFFFF" d="M1335.1,101.5l-77.5,0.9v97.8h-77.5v71h77.5v308.2c0,30.2,7.7,53.8,23.1,71.1c8.6,9.2,18.9,15.8,30.9,19.8
	c12,4,25.4,6,40.1,6l74.7-12v-72l-67.4,11.1c-5.5,0-9.7-0.6-12.5-1.8c-2.8-1.2-4.8-2.5-6-3.7c-1.2-1.8-2.5-4.8-3.7-8.8
	c-1.2-4-1.8-10.3-1.8-18.9v-299h91.3v-71h-91.3V101.5z"/>
<polygon fill="#FFFFFF" points="2172,200.2 2050.2,200.2 2035.5,252.8 1942.3,527.8 1862,271.3 1905.4,271.3 1905.4,200.2 
	1710.7,200.2 1710.7,271.3 1755.9,271.3 1671.9,535.2 1585.2,251.9 1570.4,200.2 1454.1,200.2 1454.1,271.3 1515,271.3 
	1639.6,672.7 1708.8,672.7 1807.5,327.6 1910,672.7 1976.4,672.7 2106.5,271.3 2172,271.3 "/>
<path fill="#FFFFFF" d="M2508.8,326.6c0-46.1-16-81.2-48-105.2c-15.4-11.7-33.8-20.1-55.4-25.4c-21.5-5.2-46.1-7.8-73.8-7.8
	c-12.3,0-26,1.8-41.1,5.5c-15.1,3.7-29.2,7.5-42.5,11.5c-13.2,4-28.8,9.7-46.6,17.1l22.1,55.4c3.7-1.2,9.7-3.2,18-6
	c8.3-2.8,17.5-5.7,27.7-8.8c10.2-3.1,20.6-5.7,31.4-7.8c10.8-2.1,20.4-3.2,29.1-3.2c32,0,57.5,6.2,76.6,18.4
	c16.6,10.5,24.9,29.2,24.9,56.3V406c-8.6-4.3-17.1-7.8-25.4-10.6c-8.3-2.8-16.8-5.4-25.4-7.8c-24-5.5-45.5-8.3-64.6-8.3
	c-52.3,0-95,13.9-128.2,41.5c-33.2,28.9-49.8,64.9-49.8,108c0,38.2,14.1,72,42.4,101.5c28.3,28.3,64.3,42.5,107.9,42.5
	c27.7,0,56.3-6.5,85.8-19.4c10.5-4.9,20.3-10,29.5-15.2c9.2-5.2,18.5-11.2,27.7-18v46.2h150.4v-71.1h-72.9V326.6z M2431.3,543.5
	c-16,16.6-36,31.1-60,43.4c-25.8,12.9-49.8,19.4-72,19.4c-25.8,0-46.1-7.4-60.9-22.1c-14.8-15.4-22.1-32.6-22.1-51.7
	c0-24.6,9.2-45.2,27.7-61.8c18.5-17.2,45.2-25.8,80.3-25.8c19.7,0,39.7,3.4,60,10.1c16.6,6.8,32.3,14.2,47,22.1V543.5z"/>
<path fill="#FFFFFF" d="M2826.7,202.1c-12,0.6-24,1.9-36,3.7c-12,1.9-23.5,4.3-34.6,7.4c-11.1,3.1-21.2,6.8-30.5,11.1
	c-6.8,3.7-13.2,6.8-19.4,9.2c-6.2,2.5-11.7,6.8-16.6,12.9v-46.1h-160.6v71h83v338.6v56.3h167v-71.1h-89.5V414.3
	c0-27.7,3.5-49.2,10.6-64.6c7.1-15.4,17.1-28.9,30-40.6c12.9-11.7,30-21.2,51.2-28.6c21.2-7.4,47.2-11.1,78-11.1h32.3v-67.4
	l-31.4-0.9C2849.9,201.1,2838.7,201.5,2826.7,202.1z"/>
<path fill="#FFFFFF" d="M3002.6,597.1V462.5H3134c12.4,18.4,33.4,30.5,57.2,30.5c38,0,68.9-30.8,68.9-68.8c0-38-30.8-68.8-68.9-68.8
	c-27.4,0-51.1,16-62.2,39.2h-126.4V269.9h249.3V202h-324.1v415.1v48h324.7v-67.9h-48.6H3002.6z"/>
</svg>
